<svg xmlns="http://www.w3.org/2000/svg" xmlns:xlink="http://www.w3.org/1999/xlink" width="850" height="868.4"><rect width="850" height="868.4" rx="0" ry="0" class="a"/><svg height="868.4" viewBox="0 0 85 86.84" width="850" xmlns="http://www.w3.org/2000/svg" xmlns:xlink="http://www.w3.org/1999/xlink"><style>@keyframes n{0%{transform:translateX(0)}11.8%{transform:translateX(-170px)}12.1%{transform:translateX(-425px)}15.9%{transform:translateX(-510px)}17.1%{transform:translateX(-595px)}18.6%{transform:translateX(-680px)}20%{transform:translateX(-765px)}22.5%{transform:translateX(-850px)}22.6%{transform:translateX(-1020px)}23.8%{transform:translateX(-1190px)}24.4%{transform:translateX(-1360px)}24.9%{transform:translateX(-1530px)}25.5%{transform:translateX(-1700px)}26%{transform:translateX(-1870px)}26.6%{transform:translateX(-2040px)}27.1%{transform:translateX(-2210px)}27.6%{transform:translateX(-2380px)}28.2%{transform:translateX(-2550px)}28.8%{transform:translateX(-2720px)}29.3%{transform:translateX(-2890px)}29.9%{transform:translateX(-3060px)}30.4%{transform:translateX(-3230px)}31%{transform:translateX(-3400px)}31.5%{transform:translateX(-3570px)}32.1%{transform:translateX(-3740px)}32.7%{transform:translateX(-3910px)}33.2%{transform:translateX(-4080px)}33.7%{transform:translateX(-4250px)}34.3%{transform:translateX(-4420px)}34.8%{transform:translateX(-4590px)}35.3%{transform:translateX(-4760px)}35.9%{transform:translateX(-4930px)}36.5%{transform:translateX(-5100px)}37%{transform:translateX(-5270px)}37.5%{transform:translateX(-5440px)}38.1%{transform:translateX(-5610px)}38.6%{transform:translateX(-5780px)}39.2%{transform:translateX(-5950px)}39.7%{transform:translateX(-6120px)}40.1%{transform:translateX(-6375px)}56.2%{transform:translateX(-6460px)}56.5%{transform:translateX(-6545px)}57.2%{transform:translateX(-6715px)}57.9%{transform:translateX(-6885px)}58.6%{transform:translateX(-7055px)}59.3%{transform:translateX(-7225px)}60%{transform:translateX(-7395px)}60.6%{transform:translateX(-7480px)}60.7%{transform:translateX(-7565px)}61.3%{transform:translateX(-7735px)}62%{transform:translateX(-7905px)}62.7%{transform:translateX(-8075px)}63.3%{transform:translateX(-8160px)}64%{transform:translateX(-8330px)}64.7%{transform:translateX(-8415px)}65.4%{transform:translateX(-8500px)}66.1%{transform:translateX(-8670px)}66.7%{transform:translateX(-8755px)}67.4%{transform:translateX(-8840px)}68.1%{transform:translateX(-8925px)}68.8%{transform:translateX(-9095px)}69.4%{transform:translateX(-9180px)}70.1%{transform:translateX(-9350px)}70.8%{transform:translateX(-9435px)}71.5%{transform:translateX(-9520px)}72.2%{transform:translateX(-9605px)}72.9%{transform:translateX(-9775px)}73.6%{transform:translateX(-9860px)}74.2%{transform:translateX(-10030px)}74.9%{transform:translateX(-10200px)}75.6%{transform:translateX(-10285px)}76.3%{transform:translateX(-10370px)}76.9%{transform:translateX(-10540px)}77.6%{transform:translateX(-10710px)}78.3%{transform:translateX(-10880px)}79%{transform:translateX(-11050px)}79.7%{transform:translateX(-11135px)}80.4%{transform:translateX(-11305px)}81%{transform:translateX(-11390px)}81.7%{transform:translateX(-11475px)}82.4%{transform:translateX(-11560px)}83.1%{transform:translateX(-11730px)}83.7%{transform:translateX(-11815px)}84.4%{transform:translateX(-11900px)}85.1%{transform:translateX(-11985px)}85.8%{transform:translateX(-12070px)}86.5%{transform:translateX(-12240px)}87.2%{transform:translateX(-12325px)}87.7%{transform:translateX(-12665px)}91.4%{transform:translateX(-12920px)}96.5%{transform:translateX(-13260px)}96.6%{transform:translateX(-13430px)}96.9%{transform:translateX(-13600px)}97%{transform:translateX(-13685px)}98%{transform:translateX(-14025px)}98.3%{transform:translateX(-14280px)}to{transform:translateX(-14365px)}}.a{fill:#282d35}.c{fill:#71bef2;font-weight:700;white-space:pre}.d,.e,.f,.g,.h{fill:#66c2cd;white-space:pre}.e,.f,.g,.h{fill:#b9bfca}.f,.g,.h{fill:#a8cc8c}.g,.h{fill:#dbab79;font-weight:700}.h{fill:#e88388}.i{fill:#b9c0cb}.i,.j,.q{white-space:pre}.j{fill:#99f;text-decoration:underline}.q{fill:#6f7783}</style><g font-family="Monaco,Consolas,Menlo,'Bitstream Vera Sans Mono','Powerline Symbols',monospace" font-size="1.67"><defs><symbol id="1"><text y="1.67" class="c">#</text><text x="2.004" y="1.67" class="d">zhangyuang</text><text x="13.026" y="1.67" class="e">@</text><text x="15.03" y="1.67" class="f">zhangyuangdeMacBook-Pro-2</text><text x="41.082" y="1.67" class="e">in</text><text x="44.088" y="1.67" class="g">~/Desktop/my-ssr</text><text x="61.122" y="1.67" class="e">[21:54:07]</text></symbol><symbol id="2"><text y="1.67" class="h">$</text></symbol><symbol id="3"><text y="1.67" class="h">$</text><text x="2.004" y="1.67" class="f">npx</text><text x="6.012" y="1.67" class="i">ssr</text><text x="10.02" y="1.67" class="i">start</text><text x="16.032" y="1.67" class="i">--vite</text></symbol><symbol id="4"><text y="1.67" class="d">⠋</text><text x="2.004" y="1.67" class="i">正在构建</text></symbol><symbol id="5"><text y="1.67" class="d">⠙</text><text x="2.004" y="1.67" class="i">正在构建</text></symbol><symbol id="6"><text y="1.67" class="d">⠹</text><text x="2.004" y="1.67" class="i">正在构建</text></symbol><symbol id="7"><text y="1.67" class="d">⠸</text><text x="2.004" y="1.67" class="i">正在构建</text></symbol><symbol id="8"><text y="1.67" class="d">⠼</text><text x="2.004" y="1.67" class="i">正在构建</text></symbol><symbol id="9"><text y="1.67" class="d">⠴</text><text x="2.004" y="1.67" class="i">正在构建</text></symbol><symbol id="10"><text y="1.67" class="d">⠦</text><text x="2.004" y="1.67" class="i">正在构建</text></symbol><symbol id="11"><text y="1.67" class="d">⠧</text><text x="2.004" y="1.67" class="i">正在构建</text></symbol><symbol id="12"><text y="1.67" class="d">⠇</text><text x="2.004" y="1.67" class="i">正在构建</text></symbol><symbol id="13"><text y="1.67" class="d">⠏</text><text x="2.004" y="1.67" class="i">正在构建</text></symbol><symbol id="14"><text y="1.67" class="i">⠋</text><text x="2.004" y="1.67" class="i">Midway</text><text x="9.018" y="1.67" class="i">Starting</text></symbol><symbol id="15"><text y="1.67" class="i">⠙</text><text x="2.004" y="1.67" class="i">Midway</text><text x="9.018" y="1.67" class="i">Starting</text></symbol><symbol id="16"><text y="1.67" class="i">⠹</text><text x="2.004" y="1.67" class="i">Midway</text><text x="9.018" y="1.67" class="i">Starting</text></symbol><symbol id="17"><text y="1.67" class="i">⠼</text><text x="2.004" y="1.67" class="i">Midway</text><text x="9.018" y="1.67" class="i">Starting</text></symbol><symbol id="18"><text y="1.67" class="i">⠴</text><text x="2.004" y="1.67" class="i">Midway</text><text x="9.018" y="1.67" class="i">Starting</text></symbol><symbol id="19"><text y="1.67" class="i">⠦</text><text x="2.004" y="1.67" class="i">Midway</text><text x="9.018" y="1.67" class="i">Starting</text></symbol><symbol id="20"><text y="1.67" class="i">⠧</text><text x="2.004" y="1.67" class="i">Midway</text><text x="9.018" y="1.67" class="i">Starting</text></symbol><symbol id="21"><text y="1.67" class="i">⠏</text><text x="2.004" y="1.67" class="i">Midway</text><text x="9.018" y="1.67" class="i">Starting</text></symbol><symbol id="22"><text y="1.67" class="i">[</text><text x="2.004" y="1.67" class="i">Midway</text><text x="9.018" y="1.67" class="i">]</text><text x="11.022" y="1.67" class="i">Start</text><text x="17.034" y="1.67" class="i">Server</text><text x="24.048" y="1.67" class="i">at</text><text x="28.056" y="1.67" class="j">http://127.0.0.1:3000</text></symbol><symbol id="23"><text y="1.67" class="i">[</text><text x="2.004" y="1.67" class="i">Midway</text><text x="9.018" y="1.67" class="i">]</text><text x="11.022" y="1.67" class="i">Start</text><text x="17.034" y="1.67" class="i">on</text><text x="20.04" y="1.67" class="i">LAN</text><text x="24.048" y="1.67" class="j">http://192.168.0.104:3000</text></symbol><symbol id="24"><text y="1.67" class="i">^C</text></symbol><symbol id="25"><text y="1.67" class="c">#</text><text x="2.004" y="1.67" class="d">zhangyuang</text><text x="13.026" y="1.67" class="e">@</text><text x="15.03" y="1.67" class="f">zhangyuangdeMacBook-Pro-2</text><text x="41.082" y="1.67" class="e">in</text><text x="44.088" y="1.67" class="g">~/Desktop/my-ssr</text><text x="61.122" y="1.67" class="e">[21:54:20]</text></symbol><symbol id="26"><text y="1.67" class="c">#</text><text x="2.004" y="1.67" class="d">zhangyuang</text><text x="13.026" y="1.67" class="e">@</text><text x="15.03" y="1.67" class="f">zhangyuangdeMacBook-Pro-2</text><text x="41.082" y="1.67" class="e">in</text><text x="44.088" y="1.67" class="g">~/Desktop/my-ssr</text><text x="61.122" y="1.67" class="e">[21:54:20]</text><text x="72.144" y="1.67" class="e">C:</text><text x="74.148" y="1.67" style="white-space:pre" fill="#e88388">130</text></symbol><symbol id="a"><path fill="transparent" d="M0 0h85v41H0z"/></symbol><symbol id="b"><path fill="#6f7683" d="M0 0h1.102v2.171H0z"/></symbol></defs><path class="a" d="M0 0h85v86.84H0z"/><g style="animation-duration:15.04054s;animation-iteration-count:infinite;animation-name:n;animation-timing-function:steps(1,end)"><svg width="14450"><svg><use xlink:href="#a"/><use xlink:href="#b" x="-.004"/></svg><svg x="85"><use xlink:href="#a"/><use xlink:href="#b" x="-.004"/></svg><svg x="170"><use xlink:href="#a"/><use xlink:href="#b" x="-.004"/></svg><svg x="255"><use xlink:href="#a"/><use xlink:href="#b" x="1.996" y="4.317"/><use xlink:href="#1" y="2.171"/><use xlink:href="#2" y="4.342"/></svg><svg x="340"><use xlink:href="#a"/><use xlink:href="#b" x="1.996" y="4.317"/><use xlink:href="#1" y="2.171"/><use xlink:href="#2" y="4.342"/></svg><svg x="425"><use xlink:href="#a"/><use xlink:href="#b" x="1.996" y="4.317"/><use xlink:href="#1" y="2.171"/><use xlink:href="#2" y="4.342"/></svg><svg x="510"><use xlink:href="#a"/><use xlink:href="#b" x="2.996" y="4.317"/><use xlink:href="#1" y="2.171"/><text y="6.012" class="h">$</text><text x="2.004" y="6.012" style="white-space:pre" fill="#b9c0cb" text-decoration="underline">n</text><text x="3.006" y="6.012" class="q">px</text><text x="6.012" y="6.012" class="q">ssr</text><text x="10.02" y="6.012" class="q">start</text><text x="16.032" y="6.012" class="q">--vite</text></svg><svg x="595"><use xlink:href="#a"/><use xlink:href="#b" x="3.996" y="4.317"/><use xlink:href="#1" y="2.171"/><text y="6.012" class="h">$</text><text x="2.004" y="6.012" class="h">np</text><text x="4.008" y="6.012" class="q">x</text><text x="6.012" y="6.012" class="q">ssr</text><text x="10.02" y="6.012" class="q">start</text><text x="16.032" y="6.012" class="q">--vite</text></svg><svg x="680"><use xlink:href="#a"/><use xlink:href="#b" x="4.996" y="4.317"/><use xlink:href="#1" y="2.171"/><text y="6.012" class="h">$</text><text x="2.004" y="6.012" class="f">npx</text><text x="6.012" y="6.012" class="q">ssr</text><text x="10.02" y="6.012" class="q">start</text><text x="16.032" y="6.012" class="q">--vite</text></svg><svg x="765"><use xlink:href="#a"/><use xlink:href="#b" x="21.996" y="4.317"/><use xlink:href="#1" y="2.171"/><use xlink:href="#3" y="4.342"/></svg><svg x="850"><use xlink:href="#a"/><use xlink:href="#b" x="21.996" y="4.317"/><use xlink:href="#1" y="2.171"/><use xlink:href="#3" y="4.342"/></svg><svg x="935"><use xlink:href="#a"/><use xlink:href="#b" x="-.004" y="6.488"/><use xlink:href="#1" y="2.171"/><use xlink:href="#3" y="4.342"/></svg><svg x="1020"><use xlink:href="#a"/><use xlink:href="#b" x="-.004" y="6.488"/><use xlink:href="#1" y="2.171"/><use xlink:href="#3" y="4.342"/></svg><svg x="1105"><use xlink:href="#a"/><use xlink:href="#1" y="2.171"/><use xlink:href="#3" y="4.342"/></svg><svg x="1190"><use xlink:href="#a"/><use xlink:href="#1" y="2.171"/><use xlink:href="#3" y="4.342"/><use xlink:href="#4" y="6.513"/></svg><svg x="1275"><use xlink:href="#a"/><use xlink:href="#1" y="2.171"/><use xlink:href="#3" y="4.342"/></svg><svg x="1360"><use xlink:href="#a"/><use xlink:href="#1" y="2.171"/><use xlink:href="#3" y="4.342"/><use xlink:href="#5" y="6.513"/></svg><svg x="1445"><use xlink:href="#a"/><use xlink:href="#1" y="2.171"/><use xlink:href="#3" y="4.342"/></svg><svg x="1530"><use xlink:href="#a"/><use xlink:href="#1" y="2.171"/><use xlink:href="#3" y="4.342"/><use xlink:href="#6" y="6.513"/></svg><svg x="1615"><use xlink:href="#a"/><use xlink:href="#1" y="2.171"/><use xlink:href="#3" y="4.342"/></svg><svg x="1700"><use xlink:href="#a"/><use xlink:href="#1" y="2.171"/><use xlink:href="#3" y="4.342"/><use xlink:href="#7" y="6.513"/></svg><svg x="1785"><use xlink:href="#a"/><use xlink:href="#1" y="2.171"/><use xlink:href="#3" y="4.342"/></svg><svg x="1870"><use xlink:href="#a"/><use xlink:href="#1" y="2.171"/><use xlink:href="#3" y="4.342"/><use xlink:href="#8" y="6.513"/></svg><svg x="1955"><use xlink:href="#a"/><use xlink:href="#1" y="2.171"/><use xlink:href="#3" y="4.342"/></svg><svg x="2040"><use xlink:href="#a"/><use xlink:href="#1" y="2.171"/><use xlink:href="#3" y="4.342"/><use xlink:href="#9" y="6.513"/></svg><svg x="2125"><use xlink:href="#a"/><use xlink:href="#1" y="2.171"/><use xlink:href="#3" y="4.342"/></svg><svg x="2210"><use xlink:href="#a"/><use xlink:href="#1" y="2.171"/><use xlink:href="#3" y="4.342"/><use xlink:href="#10" y="6.513"/></svg><svg x="2295"><use xlink:href="#a"/><use xlink:href="#1" y="2.171"/><use xlink:href="#3" y="4.342"/></svg><svg x="2380"><use xlink:href="#a"/><use xlink:href="#1" y="2.171"/><use xlink:href="#3" y="4.342"/><use xlink:href="#11" y="6.513"/></svg><svg x="2465"><use xlink:href="#a"/><use xlink:href="#1" y="2.171"/><use xlink:href="#3" y="4.342"/></svg><svg x="2550"><use xlink:href="#a"/><use xlink:href="#1" y="2.171"/><use xlink:href="#3" y="4.342"/><use xlink:href="#12" y="6.513"/></svg><svg x="2635"><use xlink:href="#a"/><use xlink:href="#1" y="2.171"/><use xlink:href="#3" y="4.342"/></svg><svg x="2720"><use xlink:href="#a"/><use xlink:href="#1" y="2.171"/><use xlink:href="#3" y="4.342"/><use xlink:href="#13" y="6.513"/></svg><svg x="2805"><use xlink:href="#a"/><use xlink:href="#1" y="2.171"/><use xlink:href="#3" y="4.342"/></svg><svg x="2890"><use xlink:href="#a"/><use xlink:href="#1" y="2.171"/><use xlink:href="#3" y="4.342"/><use xlink:href="#4" y="6.513"/></svg><svg x="2975"><use xlink:href="#a"/><use xlink:href="#1" y="2.171"/><use xlink:href="#3" y="4.342"/></svg><svg x="3060"><use xlink:href="#a"/><use xlink:href="#1" y="2.171"/><use xlink:href="#3" y="4.342"/><use xlink:href="#5" y="6.513"/></svg><svg x="3145"><use xlink:href="#a"/><use xlink:href="#1" y="2.171"/><use xlink:href="#3" y="4.342"/></svg><svg x="3230"><use xlink:href="#a"/><use xlink:href="#1" y="2.171"/><use xlink:href="#3" y="4.342"/><use xlink:href="#6" y="6.513"/></svg><svg x="3315"><use xlink:href="#a"/><use xlink:href="#1" y="2.171"/><use xlink:href="#3" y="4.342"/></svg><svg x="3400"><use xlink:href="#a"/><use xlink:href="#1" y="2.171"/><use xlink:href="#3" y="4.342"/><use xlink:href="#7" y="6.513"/></svg><svg x="3485"><use xlink:href="#a"/><use xlink:href="#1" y="2.171"/><use xlink:href="#3" y="4.342"/></svg><svg x="3570"><use xlink:href="#a"/><use xlink:href="#1" y="2.171"/><use xlink:href="#3" y="4.342"/><use xlink:href="#8" y="6.513"/></svg><svg x="3655"><use xlink:href="#a"/><use xlink:href="#1" y="2.171"/><use xlink:href="#3" y="4.342"/></svg><svg x="3740"><use xlink:href="#a"/><use xlink:href="#1" y="2.171"/><use xlink:href="#3" y="4.342"/><use xlink:href="#9" y="6.513"/></svg><svg x="3825"><use xlink:href="#a"/><use xlink:href="#1" y="2.171"/><use xlink:href="#3" y="4.342"/></svg><svg x="3910"><use xlink:href="#a"/><use xlink:href="#1" y="2.171"/><use xlink:href="#3" y="4.342"/><use xlink:href="#10" y="6.513"/></svg><svg x="3995"><use xlink:href="#a"/><use xlink:href="#1" y="2.171"/><use xlink:href="#3" y="4.342"/></svg><svg x="4080"><use xlink:href="#a"/><use xlink:href="#1" y="2.171"/><use xlink:href="#3" y="4.342"/><use xlink:href="#11" y="6.513"/></svg><svg x="4165"><use xlink:href="#a"/><use xlink:href="#1" y="2.171"/><use xlink:href="#3" y="4.342"/></svg><svg x="4250"><use xlink:href="#a"/><use xlink:href="#1" y="2.171"/><use xlink:href="#3" y="4.342"/><use xlink:href="#12" y="6.513"/></svg><svg x="4335"><use xlink:href="#a"/><use xlink:href="#1" y="2.171"/><use xlink:href="#3" y="4.342"/></svg><svg x="4420"><use xlink:href="#a"/><use xlink:href="#1" y="2.171"/><use xlink:href="#3" y="4.342"/><use xlink:href="#13" y="6.513"/></svg><svg x="4505"><use xlink:href="#a"/><use xlink:href="#1" y="2.171"/><use xlink:href="#3" y="4.342"/></svg><svg x="4590"><use xlink:href="#a"/><use xlink:href="#1" y="2.171"/><use xlink:href="#3" y="4.342"/><use xlink:href="#4" y="6.513"/></svg><svg x="4675"><use xlink:href="#a"/><use xlink:href="#1" y="2.171"/><use xlink:href="#3" y="4.342"/></svg><svg x="4760"><use xlink:href="#a"/><use xlink:href="#1" y="2.171"/><use xlink:href="#3" y="4.342"/><use xlink:href="#5" y="6.513"/></svg><svg x="4845"><use xlink:href="#a"/><use xlink:href="#1" y="2.171"/><use xlink:href="#3" y="4.342"/></svg><svg x="4930"><use xlink:href="#a"/><use xlink:href="#1" y="2.171"/><use xlink:href="#3" y="4.342"/><use xlink:href="#6" y="6.513"/></svg><svg x="5015"><use xlink:href="#a"/><use xlink:href="#1" y="2.171"/><use xlink:href="#3" y="4.342"/></svg><svg x="5100"><use xlink:href="#a"/><use xlink:href="#1" y="2.171"/><use xlink:href="#3" y="4.342"/><use xlink:href="#7" y="6.513"/></svg><svg x="5185"><use xlink:href="#a"/><use xlink:href="#1" y="2.171"/><use xlink:href="#3" y="4.342"/></svg><svg x="5270"><use xlink:href="#a"/><use xlink:href="#1" y="2.171"/><use xlink:href="#3" y="4.342"/><use xlink:href="#8" y="6.513"/></svg><svg x="5355"><use xlink:href="#a"/><use xlink:href="#1" y="2.171"/><use xlink:href="#3" y="4.342"/></svg><svg x="5440"><use xlink:href="#a"/><use xlink:href="#1" y="2.171"/><use xlink:href="#3" y="4.342"/><use xlink:href="#9" y="6.513"/></svg><svg x="5525"><use xlink:href="#a"/><use xlink:href="#1" y="2.171"/><use xlink:href="#3" y="4.342"/></svg><svg x="5610"><use xlink:href="#a"/><use xlink:href="#1" y="2.171"/><use xlink:href="#3" y="4.342"/><use xlink:href="#10" y="6.513"/></svg><svg x="5695"><use xlink:href="#a"/><use xlink:href="#1" y="2.171"/><use xlink:href="#3" y="4.342"/></svg><svg x="5780"><use xlink:href="#a"/><use xlink:href="#1" y="2.171"/><use xlink:href="#3" y="4.342"/><use xlink:href="#11" y="6.513"/></svg><svg x="5865"><use xlink:href="#a"/><use xlink:href="#1" y="2.171"/><use xlink:href="#3" y="4.342"/></svg><svg x="5950"><use xlink:href="#a"/><use xlink:href="#1" y="2.171"/><use xlink:href="#3" y="4.342"/><use xlink:href="#12" y="6.513"/></svg><svg x="6035"><use xlink:href="#a"/><use xlink:href="#1" y="2.171"/><use xlink:href="#3" y="4.342"/></svg><svg x="6120"><use xlink:href="#a"/><use xlink:href="#1" y="2.171"/><use xlink:href="#3" y="4.342"/><use xlink:href="#13" y="6.513"/></svg><svg x="6205"><use xlink:href="#a"/><use xlink:href="#1" y="2.171"/><use xlink:href="#3" y="4.342"/></svg><svg x="6290"><use xlink:href="#a"/><use xlink:href="#b" x="-.004" y="6.488"/><use xlink:href="#1" y="2.171"/><use xlink:href="#3" y="4.342"/></svg><svg x="6375"><use xlink:href="#a"/><use xlink:href="#b" x="-.004" y="6.488"/><use xlink:href="#1" y="2.171"/><use xlink:href="#3" y="4.342"/></svg><svg x="6460"><use xlink:href="#a"/><use xlink:href="#b" x="-.004" y="8.659"/><use xlink:href="#1" y="2.171"/><use xlink:href="#3" y="4.342"/></svg><svg x="6545"><use xlink:href="#a"/><use xlink:href="#b" x="17.996" y="8.659"/><use xlink:href="#1" y="2.171"/><use xlink:href="#3" y="4.342"/><use xlink:href="#14" y="8.684"/></svg><svg x="6630"><use xlink:href="#a"/><use xlink:href="#b" x="17.996" y="8.659"/><use xlink:href="#1" y="2.171"/><use xlink:href="#3" y="4.342"/></svg><svg x="6715"><use xlink:href="#a"/><use xlink:href="#b" x="17.996" y="8.659"/><use xlink:href="#1" y="2.171"/><use xlink:href="#3" y="4.342"/><use xlink:href="#15" y="8.684"/></svg><svg x="6800"><use xlink:href="#a"/><use xlink:href="#b" x="17.996" y="8.659"/><use xlink:href="#1" y="2.171"/><use xlink:href="#3" y="4.342"/></svg><svg x="6885"><use xlink:href="#a"/><use xlink:href="#b" x="17.996" y="8.659"/><use xlink:href="#1" y="2.171"/><use xlink:href="#3" y="4.342"/><use xlink:href="#16" y="8.684"/></svg><svg x="6970"><use xlink:href="#a"/><use xlink:href="#b" x="17.996" y="8.659"/><use xlink:href="#1" y="2.171"/><use xlink:href="#3" y="4.342"/></svg><svg x="7055"><use xlink:href="#a"/><use xlink:href="#b" x="17.996" y="8.659"/><use xlink:href="#1" y="2.171"/><use xlink:href="#3" y="4.342"/><use xlink:href="#17" y="8.684"/></svg><svg x="7140"><use xlink:href="#a"/><use xlink:href="#b" x="17.996" y="8.659"/><use xlink:href="#1" y="2.171"/><use xlink:href="#3" y="4.342"/></svg><svg x="7225"><use xlink:href="#a"/><use xlink:href="#b" x="17.996" y="8.659"/><use xlink:href="#1" y="2.171"/><use xlink:href="#3" y="4.342"/><use xlink:href="#18" y="8.684"/></svg><svg x="7310"><use xlink:href="#a"/><use xlink:href="#b" x="-.004" y="8.659"/><use xlink:href="#1" y="2.171"/><use xlink:href="#3" y="4.342"/></svg><svg x="7395"><use xlink:href="#a"/><use xlink:href="#b" x="17.996" y="8.659"/><use xlink:href="#1" y="2.171"/><use xlink:href="#3" y="4.342"/><use xlink:href="#19" y="8.684"/></svg><svg x="7480"><use xlink:href="#a"/><use xlink:href="#b" x="-.004" y="8.659"/><use xlink:href="#1" y="2.171"/><use xlink:href="#3" y="4.342"/></svg><svg x="7565"><use xlink:href="#a"/><use xlink:href="#b" x="17.996" y="8.659"/><use xlink:href="#1" y="2.171"/><use xlink:href="#3" y="4.342"/><use xlink:href="#20" y="8.684"/></svg><svg x="7650"><use xlink:href="#a"/><use xlink:href="#b" x="-.004" y="8.659"/><use xlink:href="#1" y="2.171"/><use xlink:href="#3" y="4.342"/></svg><svg x="7735"><use xlink:href="#a"/><use xlink:href="#b" x="17.996" y="8.659"/><use xlink:href="#1" y="2.171"/><use xlink:href="#3" y="4.342"/><use xlink:href="#21" y="8.684"/></svg><svg x="7820"><use xlink:href="#a"/><use xlink:href="#b" x="17.996" y="8.659"/><use xlink:href="#1" y="2.171"/><use xlink:href="#3" y="4.342"/></svg><svg x="7905"><use xlink:href="#a"/><use xlink:href="#b" x="17.996" y="8.659"/><use xlink:href="#1" y="2.171"/><use xlink:href="#3" y="4.342"/><use xlink:href="#14" y="8.684"/></svg><svg x="7990"><use xlink:href="#a"/><use xlink:href="#b" x="17.996" y="8.659"/><use xlink:href="#1" y="2.171"/><use xlink:href="#3" y="4.342"/></svg><svg x="8075"><use xlink:href="#a"/><use xlink:href="#b" x="17.996" y="8.659"/><use xlink:href="#1" y="2.171"/><use xlink:href="#3" y="4.342"/><use xlink:href="#15" y="8.684"/></svg><svg x="8160"><use xlink:href="#a"/><use xlink:href="#b" x="17.996" y="8.659"/><use xlink:href="#1" y="2.171"/><use xlink:href="#3" y="4.342"/><use xlink:href="#16" y="8.684"/></svg><svg x="8245"><use xlink:href="#a"/><use xlink:href="#b" x="-.004" y="8.659"/><use xlink:href="#1" y="2.171"/><use xlink:href="#3" y="4.342"/></svg><svg x="8330"><use xlink:href="#a"/><use xlink:href="#b" x="17.996" y="8.659"/><use xlink:href="#1" y="2.171"/><use xlink:href="#3" y="4.342"/><use xlink:href="#17" y="8.684"/></svg><svg x="8415"><use xlink:href="#a"/><use xlink:href="#b" x="17.996" y="8.659"/><use xlink:href="#1" y="2.171"/><use xlink:href="#3" y="4.342"/><use xlink:href="#18" y="8.684"/></svg><svg x="8500"><use xlink:href="#a"/><use xlink:href="#b" x="17.996" y="8.659"/><use xlink:href="#1" y="2.171"/><use xlink:href="#3" y="4.342"/><use xlink:href="#19" y="8.684"/></svg><svg x="8585"><use xlink:href="#a"/><use xlink:href="#b" x="-.004" y="8.659"/><use xlink:href="#1" y="2.171"/><use xlink:href="#3" y="4.342"/></svg><svg x="8670"><use xlink:href="#a"/><use xlink:href="#b" x="17.996" y="8.659"/><use xlink:href="#1" y="2.171"/><use xlink:href="#3" y="4.342"/><use xlink:href="#20" y="8.684"/></svg><svg x="8755"><use xlink:href="#a"/><use xlink:href="#b" x="17.996" y="8.659"/><use xlink:href="#1" y="2.171"/><use xlink:href="#3" y="4.342"/><use xlink:href="#21" y="8.684"/></svg><svg x="8840"><use xlink:href="#a"/><use xlink:href="#b" x="17.996" y="8.659"/><use xlink:href="#1" y="2.171"/><use xlink:href="#3" y="4.342"/><use xlink:href="#14" y="8.684"/></svg><svg x="8925"><use xlink:href="#a"/><use xlink:href="#b" x="17.996" y="8.659"/><use xlink:href="#1" y="2.171"/><use xlink:href="#3" y="4.342"/><use xlink:href="#15" y="8.684"/></svg><svg x="9010"><use xlink:href="#a"/><use xlink:href="#b" x="-.004" y="8.659"/><use xlink:href="#1" y="2.171"/><use xlink:href="#3" y="4.342"/></svg><svg x="9095"><use xlink:href="#a"/><use xlink:href="#b" x="17.996" y="8.659"/><use xlink:href="#1" y="2.171"/><use xlink:href="#3" y="4.342"/><use xlink:href="#16" y="8.684"/></svg><svg x="9180"><use xlink:href="#a"/><use xlink:href="#b" x="17.996" y="8.659"/><use xlink:href="#1" y="2.171"/><use xlink:href="#3" y="4.342"/><use xlink:href="#17" y="8.684"/></svg><svg x="9265"><use xlink:href="#a"/><use xlink:href="#b" x="-.004" y="8.659"/><use xlink:href="#1" y="2.171"/><use xlink:href="#3" y="4.342"/></svg><svg x="9350"><use xlink:href="#a"/><use xlink:href="#b" x="17.996" y="8.659"/><use xlink:href="#1" y="2.171"/><use xlink:href="#3" y="4.342"/><use xlink:href="#18" y="8.684"/></svg><svg x="9435"><use xlink:href="#a"/><use xlink:href="#b" x="17.996" y="8.659"/><use xlink:href="#1" y="2.171"/><use xlink:href="#3" y="4.342"/><use xlink:href="#19" y="8.684"/></svg><svg x="9520"><use xlink:href="#a"/><use xlink:href="#b" x="17.996" y="8.659"/><use xlink:href="#1" y="2.171"/><use xlink:href="#3" y="4.342"/><use xlink:href="#20" y="8.684"/></svg><svg x="9605"><use xlink:href="#a"/><use xlink:href="#b" x="17.996" y="8.659"/><use xlink:href="#1" y="2.171"/><use xlink:href="#3" y="4.342"/><use xlink:href="#21" y="8.684"/></svg><svg x="9690"><use xlink:href="#a"/><use xlink:href="#b" x="-.004" y="8.659"/><use xlink:href="#1" y="2.171"/><use xlink:href="#3" y="4.342"/></svg><svg x="9775"><use xlink:href="#a"/><use xlink:href="#b" x="17.996" y="8.659"/><use xlink:href="#1" y="2.171"/><use xlink:href="#3" y="4.342"/><use xlink:href="#14" y="8.684"/></svg><svg x="9860"><use xlink:href="#a"/><use xlink:href="#b" x="17.996" y="8.659"/><use xlink:href="#1" y="2.171"/><use xlink:href="#3" y="4.342"/><use xlink:href="#15" y="8.684"/></svg><svg x="9945"><use xlink:href="#a"/><use xlink:href="#b" x="-.004" y="8.659"/><use xlink:href="#1" y="2.171"/><use xlink:href="#3" y="4.342"/></svg><svg x="10030"><use xlink:href="#a"/><use xlink:href="#b" x="17.996" y="8.659"/><use xlink:href="#1" y="2.171"/><use xlink:href="#3" y="4.342"/><use xlink:href="#16" y="8.684"/></svg><svg x="10115"><use xlink:href="#a"/><use xlink:href="#b" x="-.004" y="8.659"/><use xlink:href="#1" y="2.171"/><use xlink:href="#3" y="4.342"/></svg><svg x="10200"><use xlink:href="#a"/><use xlink:href="#b" x="17.996" y="8.659"/><use xlink:href="#1" y="2.171"/><use xlink:href="#3" y="4.342"/><use xlink:href="#17" y="8.684"/></svg><svg x="10285"><use xlink:href="#a"/><use xlink:href="#b" x="17.996" y="8.659"/><use xlink:href="#1" y="2.171"/><use xlink:href="#3" y="4.342"/><use xlink:href="#18" y="8.684"/></svg><svg x="10370"><use xlink:href="#a"/><use xlink:href="#b" x="17.996" y="8.659"/><use xlink:href="#1" y="2.171"/><use xlink:href="#3" y="4.342"/><use xlink:href="#19" y="8.684"/></svg><svg x="10455"><use xlink:href="#a"/><use xlink:href="#b" x="-.004" y="8.659"/><use xlink:href="#1" y="2.171"/><use xlink:href="#3" y="4.342"/></svg><svg x="10540"><use xlink:href="#a"/><use xlink:href="#b" x="17.996" y="8.659"/><use xlink:href="#1" y="2.171"/><use xlink:href="#3" y="4.342"/><use xlink:href="#20" y="8.684"/></svg><svg x="10625"><use xlink:href="#a"/><use xlink:href="#b" x="-.004" y="8.659"/><use xlink:href="#1" y="2.171"/><use xlink:href="#3" y="4.342"/></svg><svg x="10710"><use xlink:href="#a"/><use xlink:href="#b" x="17.996" y="8.659"/><use xlink:href="#1" y="2.171"/><use xlink:href="#3" y="4.342"/><use xlink:href="#21" y="8.684"/></svg><svg x="10795"><use xlink:href="#a"/><use xlink:href="#b" x="-.004" y="8.659"/><use xlink:href="#1" y="2.171"/><use xlink:href="#3" y="4.342"/></svg><svg x="10880"><use xlink:href="#a"/><use xlink:href="#b" x="17.996" y="8.659"/><use xlink:href="#1" y="2.171"/><use xlink:href="#3" y="4.342"/><use xlink:href="#14" y="8.684"/></svg><svg x="10965"><use xlink:href="#a"/><use xlink:href="#b" x="-.004" y="8.659"/><use xlink:href="#1" y="2.171"/><use xlink:href="#3" y="4.342"/></svg><svg x="11050"><use xlink:href="#a"/><use xlink:href="#b" x="17.996" y="8.659"/><use xlink:href="#1" y="2.171"/><use xlink:href="#3" y="4.342"/><use xlink:href="#15" y="8.684"/></svg><svg x="11135"><use xlink:href="#a"/><use xlink:href="#b" x="17.996" y="8.659"/><use xlink:href="#1" y="2.171"/><use xlink:href="#3" y="4.342"/><use xlink:href="#16" y="8.684"/></svg><svg x="11220"><use xlink:href="#a"/><use xlink:href="#b" x="-.004" y="8.659"/><use xlink:href="#1" y="2.171"/><use xlink:href="#3" y="4.342"/></svg><svg x="11305"><use xlink:href="#a"/><use xlink:href="#b" x="17.996" y="8.659"/><use xlink:href="#1" y="2.171"/><use xlink:href="#3" y="4.342"/><use xlink:href="#17" y="8.684"/></svg><svg x="11390"><use xlink:href="#a"/><use xlink:href="#b" x="17.996" y="8.659"/><use xlink:href="#1" y="2.171"/><use xlink:href="#3" y="4.342"/><use xlink:href="#18" y="8.684"/></svg><svg x="11475"><use xlink:href="#a"/><use xlink:href="#b" x="17.996" y="8.659"/><use xlink:href="#1" y="2.171"/><use xlink:href="#3" y="4.342"/><use xlink:href="#19" y="8.684"/></svg><svg x="11560"><use xlink:href="#a"/><use xlink:href="#b" x="17.996" y="8.659"/><use xlink:href="#1" y="2.171"/><use xlink:href="#3" y="4.342"/><use xlink:href="#20" y="8.684"/></svg><svg x="11645"><use xlink:href="#a"/><use xlink:href="#b" x="-.004" y="8.659"/><use xlink:href="#1" y="2.171"/><use xlink:href="#3" y="4.342"/></svg><svg x="11730"><use xlink:href="#a"/><use xlink:href="#b" x="17.996" y="8.659"/><use xlink:href="#1" y="2.171"/><use xlink:href="#3" y="4.342"/><use xlink:href="#21" y="8.684"/></svg><svg x="11815"><use xlink:href="#a"/><use xlink:href="#b" x="17.996" y="8.659"/><use xlink:href="#1" y="2.171"/><use xlink:href="#3" y="4.342"/><use xlink:href="#14" y="8.684"/></svg><svg x="11900"><use xlink:href="#a"/><use xlink:href="#b" x="17.996" y="8.659"/><use xlink:href="#1" y="2.171"/><use xlink:href="#3" y="4.342"/><use xlink:href="#15" y="8.684"/></svg><svg x="11985"><use xlink:href="#a"/><use xlink:href="#b" x="17.996" y="8.659"/><use xlink:href="#1" y="2.171"/><use xlink:href="#3" y="4.342"/><use xlink:href="#16" y="8.684"/></svg><svg x="12070"><use xlink:href="#a"/><use xlink:href="#b" x="17.996" y="8.659"/><use xlink:href="#1" y="2.171"/><use xlink:href="#3" y="4.342"/><use xlink:href="#17" y="8.684"/></svg><svg x="12155"><use xlink:href="#a"/><use xlink:href="#b" x="-.004" y="8.659"/><use xlink:href="#1" y="2.171"/><use xlink:href="#3" y="4.342"/></svg><svg x="12240"><use xlink:href="#a"/><use xlink:href="#b" x="17.996" y="8.659"/><use xlink:href="#1" y="2.171"/><use xlink:href="#3" y="4.342"/><use xlink:href="#18" y="8.684"/></svg><svg x="12325"><use xlink:href="#a"/><use xlink:href="#b" x="17.996" y="8.659"/><use xlink:href="#1" y="2.171"/><use xlink:href="#3" y="4.342"/><use xlink:href="#19" y="8.684"/></svg><svg x="12410"><use xlink:href="#a"/><use xlink:href="#b" x="-.004" y="8.659"/><use xlink:href="#1" y="2.171"/><use xlink:href="#3" y="4.342"/></svg><svg x="12495"><use xlink:href="#a"/><use xlink:href="#b" x="-.004" y="10.83"/><use xlink:href="#1" y="2.171"/><use xlink:href="#3" y="4.342"/><use xlink:href="#22" y="8.684"/></svg><svg x="12580"><use xlink:href="#a"/><use xlink:href="#b" x="-.004" y="15.172"/><use xlink:href="#1" y="2.171"/><use xlink:href="#3" y="4.342"/><use xlink:href="#22" y="8.684"/><use xlink:href="#23" y="10.855"/></svg><svg x="12665"><use xlink:href="#a"/><use xlink:href="#b" x="-.004" y="17.343"/><use xlink:href="#1" y="2.171"/><use xlink:href="#3" y="4.342"/><use xlink:href="#22" y="8.684"/><use xlink:href="#23" y="10.855"/></svg><svg x="12750"><use xlink:href="#a"/><use xlink:href="#b" x="1.996" y="17.343"/><use xlink:href="#1" y="2.171"/><use xlink:href="#3" y="4.342"/><use xlink:href="#22" y="8.684"/><use xlink:href="#23" y="10.855"/><use xlink:href="#24" y="17.368"/></svg><svg x="12835"><use xlink:href="#a"/><use xlink:href="#b" x="1.996" y="17.343"/><use xlink:href="#1" y="2.171"/><use xlink:href="#3" y="4.342"/><use xlink:href="#22" y="8.684"/><use xlink:href="#23" y="10.855"/></svg><svg x="12920"><use xlink:href="#a"/><use xlink:href="#b" x="-.004" y="17.343"/><use xlink:href="#1" y="2.171"/><use xlink:href="#3" y="4.342"/><use xlink:href="#22" y="8.684"/><use xlink:href="#23" y="10.855"/></svg><svg x="13005"><use xlink:href="#a"/><use xlink:href="#b" x="1.996" y="17.343"/><use xlink:href="#1" y="2.171"/><use xlink:href="#3" y="4.342"/><use xlink:href="#22" y="8.684"/><use xlink:href="#23" y="10.855"/><use xlink:href="#24" y="17.368"/></svg><svg x="13090"><use xlink:href="#a"/><use xlink:href="#b" x="1.996" y="17.343"/><use xlink:href="#1" y="2.171"/><use xlink:href="#3" y="4.342"/><use xlink:href="#22" y="8.684"/><use xlink:href="#23" y="10.855"/></svg><svg x="13175"><use xlink:href="#a"/><use xlink:href="#b" x="-.004" y="17.343"/><use xlink:href="#1" y="2.171"/><use xlink:href="#3" y="4.342"/><use xlink:href="#22" y="8.684"/><use xlink:href="#23" y="10.855"/></svg><svg x="13260"><use xlink:href="#a"/><use xlink:href="#b" x="-.004" y="17.343"/><use xlink:href="#1" y="2.171"/><use xlink:href="#3" y="4.342"/><use xlink:href="#22" y="8.684"/><use xlink:href="#23" y="10.855"/></svg><svg x="13345"><use xlink:href="#a"/><use xlink:href="#b" x="-.004" y="17.343"/><use xlink:href="#1" y="2.171"/><use xlink:href="#3" y="4.342"/><use xlink:href="#22" y="8.684"/><use xlink:href="#23" y="10.855"/></svg><svg x="13430"><use xlink:href="#a"/><use xlink:href="#b" x="-.004" y="17.343"/><use xlink:href="#1" y="2.171"/><use xlink:href="#3" y="4.342"/><use xlink:href="#22" y="8.684"/><use xlink:href="#23" y="10.855"/></svg><svg x="13515"><use xlink:href="#a"/><use xlink:href="#b" x="1.996" y="21.685"/><use xlink:href="#1" y="2.171"/><use xlink:href="#3" y="4.342"/><use xlink:href="#22" y="8.684"/><use xlink:href="#23" y="10.855"/><use xlink:href="#25" y="19.539"/><use xlink:href="#2" y="21.71"/></svg><svg x="13600"><use xlink:href="#a"/><use xlink:href="#b" x="1.996" y="21.685"/><use xlink:href="#1" y="2.171"/><use xlink:href="#3" y="4.342"/><use xlink:href="#22" y="8.684"/><use xlink:href="#23" y="10.855"/><use xlink:href="#25" y="19.539"/><use xlink:href="#2" y="21.71"/></svg><svg x="13685"><use xlink:href="#a"/><use xlink:href="#b" x="1.996" y="21.685"/><use xlink:href="#1" y="2.171"/><use xlink:href="#3" y="4.342"/><use xlink:href="#22" y="8.684"/><use xlink:href="#23" y="10.855"/><use xlink:href="#25" y="19.539"/><use xlink:href="#2" y="21.71"/></svg><svg x="13770"><use xlink:href="#a"/><use xlink:href="#b" x="-.004" y="23.856"/><use xlink:href="#1" y="2.171"/><use xlink:href="#3" y="4.342"/><use xlink:href="#22" y="8.684"/><use xlink:href="#23" y="10.855"/><use xlink:href="#25" y="19.539"/><use xlink:href="#2" y="21.71"/></svg><svg x="13855"><use xlink:href="#a"/><use xlink:href="#b" x="-.004" y="23.856"/><use xlink:href="#1" y="2.171"/><use xlink:href="#3" y="4.342"/><use xlink:href="#22" y="8.684"/><use xlink:href="#23" y="10.855"/><use xlink:href="#25" y="19.539"/><use xlink:href="#2" y="21.71"/></svg><svg x="13940"><use xlink:href="#a"/><use xlink:href="#b" x="-.004" y="23.856"/><use xlink:href="#1" y="2.171"/><use xlink:href="#3" y="4.342"/><use xlink:href="#22" y="8.684"/><use xlink:href="#23" y="10.855"/><use xlink:href="#25" y="19.539"/><use xlink:href="#2" y="21.71"/></svg><svg x="14025"><use xlink:href="#a"/><use xlink:href="#b" x="-.004" y="23.856"/><use xlink:href="#1" y="2.171"/><use xlink:href="#3" y="4.342"/><use xlink:href="#22" y="8.684"/><use xlink:href="#23" y="10.855"/><use xlink:href="#25" y="19.539"/><use xlink:href="#2" y="21.71"/></svg><svg x="14110"><use xlink:href="#a"/><use xlink:href="#b" x="1.996" y="28.198"/><use xlink:href="#1" y="2.171"/><use xlink:href="#3" y="4.342"/><use xlink:href="#22" y="8.684"/><use xlink:href="#23" y="10.855"/><use xlink:href="#25" y="19.539"/><use xlink:href="#2" y="21.71"/><use xlink:href="#26" y="26.052"/><use xlink:href="#2" y="28.223"/></svg><svg x="14195"><use xlink:href="#a"/><use xlink:href="#b" x="1.996" y="28.198"/><use xlink:href="#1" y="2.171"/><use xlink:href="#3" y="4.342"/><use xlink:href="#22" y="8.684"/><use xlink:href="#23" y="10.855"/><use xlink:href="#25" y="19.539"/><use xlink:href="#2" y="21.71"/><use xlink:href="#26" y="26.052"/><use xlink:href="#2" y="28.223"/></svg><svg x="14280"><use xlink:href="#a"/><use xlink:href="#b" x="1.996" y="28.198"/><use xlink:href="#1" y="2.171"/><use xlink:href="#3" y="4.342"/><use xlink:href="#22" y="8.684"/><use xlink:href="#23" y="10.855"/><use xlink:href="#25" y="19.539"/><use xlink:href="#2" y="21.71"/><use xlink:href="#26" y="26.052"/><use xlink:href="#2" y="28.223"/></svg><svg x="14365"><use xlink:href="#a"/><use xlink:href="#b" x="-.004" y="30.369"/><use xlink:href="#1" y="2.171"/><use xlink:href="#3" y="4.342"/><use xlink:href="#22" y="8.684"/><use xlink:href="#23" y="10.855"/><use xlink:href="#25" y="19.539"/><use xlink:href="#2" y="21.71"/><use xlink:href="#26" y="26.052"/><use xlink:href="#2" y="28.223"/></svg></svg></g></g></svg></svg>