<svg xmlns="http://www.w3.org/2000/svg" xmlns:xlink="http://www.w3.org/1999/xlink" width="1260" height="928.4"><rect width="1260" height="928.4" rx="5" ry="5" class="a"/><svg y="0%" x="0%"><circle cx="20" cy="20" r="6" fill="#ff5f58"/><circle cx="40" cy="20" r="6" fill="#ffbd2e"/><circle cx="60" cy="20" r="6" fill="#18c132"/></svg><svg height="868.4" viewBox="0 0 122 86.84" width="1220" x="15" xmlns="http://www.w3.org/2000/svg" xmlns:xlink="http://www.w3.org/1999/xlink" y="50"><style>@keyframes r{0%{transform:translateX(0)}14.7%{transform:translateX(-244px)}15.3%{transform:translateX(-610px)}25.5%{transform:translateX(-732px)}25.8%{transform:translateX(-854px)}27.8%{transform:translateX(-976px)}29.2%{transform:translateX(-1098px)}31.9%{transform:translateX(-1220px)}40.2%{transform:translateX(-1342px)}48%{transform:translateX(-1464px)}48.1%{transform:translateX(-1708px)}58.9%{transform:translateX(-1952px)}74.2%{transform:translateX(-2684px)}74.4%{transform:translateX(-2806px)}74.5%{transform:translateX(-2928px)}75.1%{transform:translateX(-3172px)}75.2%{transform:translateX(-3294px)}to{transform:translateX(-3416px)}}.a{fill:#282d35}.f,.g,.h,.i{white-space:pre}.f{fill:#71bef2;font-weight:700}.g,.h,.i{fill:#66c2cd}.h,.i{fill:#b9bfca}.i{fill:#a8cc8c}.j{fill:#dbab79;font-weight:700}.j,.k,.l,.m,.o{white-space:pre}.k{fill:#e88388;font-weight:700}.l,.m,.o{fill:#6f7783}.m,.o{fill:#b9c0cb}.o{font-weight:700}</style><g font-family="Monaco,Consolas,Menlo,'Bitstream Vera Sans Mono','Powerline Symbols',monospace" font-size="1.67"><defs><symbol id="1"><text y="1.67" class="f">#</text><text x="2.004" y="1.67" class="g">yuuang</text><text x="9.018" y="1.67" class="h">@</text><text x="11.022" y="1.67" class="i">YUUANGZHANG-MB0</text><text x="27.054" y="1.67" class="h">in</text><text x="30.06" y="1.67" class="j">~/Desktop</text><text x="40.08" y="1.67" class="h">[14:20:17]</text></symbol><symbol id="2"><text y="1.67" class="k">$</text></symbol><symbol id="3"><text y="1.67" class="k">$</text><text x="2.004" y="1.67" class="i">npm</text><text x="6.012" y="1.67" class="l">init</text><text x="11.022" y="1.67" class="l">ssr-app</text><text x="19.038" y="1.67" class="l">my-ssr-project</text></symbol><symbol id="4"><text y="1.67" class="k">$</text><text x="2.004" y="1.67" class="i">npm</text><text x="6.012" y="1.67" class="m">init</text><text x="11.022" y="1.67" class="m">ssr-app</text><text x="19.038" y="1.67" style="white-space:pre" fill="#b9c0cb" text-decoration="underline">my-ssr-project</text></symbol><symbol id="5"><text y="1.67" class="k">$</text><text x="2.004" y="1.67" class="i">npm</text><text x="6.012" y="1.67" class="m">init</text><text x="11.022" y="1.67" class="m">ssr-app</text><text x="19.038" y="1.67" class="m">my-ssr-project</text></symbol><symbol id="6"><text y="1.67" class="i">✔</text><text x="2.004" y="1.67" class="o">Select</text><text x="9.018" y="1.67" class="o">a</text><text x="11.022" y="1.67" class="o">framework:</text><text x="22.044" y="1.67" class="l">›</text><text x="24.048" y="1.67" class="m">midway-vue3-ssr</text></symbol><symbol id="7"><text x="1.002" y="1.67" class="i">midway-vue3-ssr</text><text x="17.034" y="1.67" class="i">应用创建中...</text></symbol><symbol id="8"><text x="1.002" y="1.67" class="i">midway-vue3-ssr</text><text x="17.034" y="1.67" class="i">应用创建完成</text></symbol><symbol id="9"><text x="2.004" y="1.67" class="i">cd</text><text x="5.01" y="1.67" class="i">my-ssr-project</text></symbol><symbol id="10"><text x="2.004" y="1.67" class="i">npm</text><text x="6.012" y="1.67" class="i">install</text><text x="14.028" y="1.67" class="i">(or</text><text x="18.036" y="1.67" class="i">`yarn`)</text></symbol><symbol id="11"><text x="2.004" y="1.67" class="i">npm</text><text x="6.012" y="1.67" class="i">start</text><text x="12.024" y="1.67" class="i">(or</text><text x="16.032" y="1.67" class="i">`yarn</text><text x="22.044" y="1.67" class="i">start`)</text></symbol><symbol id="12"><text y="1.67" class="f">#</text><text x="2.004" y="1.67" class="g">yuuang</text><text x="9.018" y="1.67" class="h">@</text><text x="11.022" y="1.67" class="i">YUUANGZHANG-MB0</text><text x="27.054" y="1.67" class="h">in</text><text x="30.06" y="1.67" class="j">~/Desktop</text><text x="40.08" y="1.67" class="h">[14:20:20]</text></symbol><symbol id="a"><path fill="transparent" d="M0 0h122v41H0z"/></symbol><symbol id="b"><path fill="#6f7683" d="M0 0h1.102v2.171H0z"/></symbol></defs><path class="a" d="M0 0h122v86.84H0z"/><g style="animation-duration:5.442858s;animation-iteration-count:infinite;animation-name:r;animation-timing-function:steps(1,end)"><svg width="3538"><svg><use xlink:href="#a"/><use xlink:href="#b" x="-.004"/></svg><svg x="122"><use xlink:href="#a"/><use xlink:href="#b" x="-.004"/></svg><svg x="244"><use xlink:href="#a"/><use xlink:href="#b" x="-.004"/></svg><svg x="366"><use xlink:href="#a"/><use xlink:href="#b" x="1.996" y="4.317"/><use xlink:href="#1" y="2.171"/><use xlink:href="#2" y="4.342"/></svg><svg x="488"><use xlink:href="#a"/><use xlink:href="#b" x="1.996" y="4.317"/><use xlink:href="#1" y="2.171"/><use xlink:href="#2" y="4.342"/></svg><svg x="610"><use xlink:href="#a"/><use xlink:href="#b" x="1.996" y="4.317"/><use xlink:href="#1" y="2.171"/><use xlink:href="#2" y="4.342"/></svg><svg x="732"><use xlink:href="#a"/><use xlink:href="#b" x="2.996" y="4.317"/><use xlink:href="#1" y="2.171"/><text y="6.012" class="k">$</text><text x="2.004" y="6.012" class="k">n</text><text x="3.006" y="6.012" class="l">pm</text><text x="6.012" y="6.012" class="l">init</text><text x="11.022" y="6.012" class="l">ssr-app</text><text x="19.038" y="6.012" class="l">my-ssr-project</text></svg><svg x="854"><use xlink:href="#a"/><use xlink:href="#b" x="3.996" y="4.317"/><use xlink:href="#1" y="2.171"/><text y="6.012" class="k">$</text><text x="2.004" y="6.012" class="k">np</text><text x="4.008" y="6.012" class="l">m</text><text x="6.012" y="6.012" class="l">init</text><text x="11.022" y="6.012" class="l">ssr-app</text><text x="19.038" y="6.012" class="l">my-ssr-project</text></svg><svg x="976"><use xlink:href="#a"/><use xlink:href="#b" x="4.996" y="4.317"/><use xlink:href="#1" y="2.171"/><use xlink:href="#3" y="4.342"/></svg><svg x="1098"><use xlink:href="#a"/><use xlink:href="#b" x="5.996" y="4.317"/><use xlink:href="#1" y="2.171"/><use xlink:href="#3" y="4.342"/></svg><svg x="1220"><use xlink:href="#a"/><use xlink:href="#b" x="6.996" y="4.317"/><use xlink:href="#1" y="2.171"/><text y="6.012" class="k">$</text><text x="2.004" y="6.012" class="i">npm</text><text x="6.012" y="6.012" class="m">i</text><text x="7.014" y="6.012" class="l">nit</text><text x="11.022" y="6.012" class="l">ssr-app</text><text x="19.038" y="6.012" class="l">my-ssr-project</text></svg><svg x="1342"><use xlink:href="#a"/><use xlink:href="#b" x="32.996" y="4.317"/><use xlink:href="#1" y="2.171"/><use xlink:href="#4" y="4.342"/></svg><svg x="1464"><use xlink:href="#a"/><use xlink:href="#b" x="32.996" y="4.317"/><use xlink:href="#1" y="2.171"/><use xlink:href="#4" y="4.342"/></svg><svg x="1586"><use xlink:href="#a"/><use xlink:href="#b" x="-.004" y="6.488"/><use xlink:href="#1" y="2.171"/><use xlink:href="#5" y="4.342"/></svg><svg x="1708"><use xlink:href="#a"/><use xlink:href="#b" x="-.004" y="6.488"/><use xlink:href="#1" y="2.171"/><use xlink:href="#5" y="4.342"/></svg><svg x="1830"><use xlink:href="#a"/><use xlink:href="#1" y="2.171"/><use xlink:href="#5" y="4.342"/></svg><svg x="1952"><use xlink:href="#a"/><use xlink:href="#1" y="2.171"/><use xlink:href="#5" y="4.342"/><text y="8.183" class="g">?</text><text x="2.004" y="8.183" class="o">Select</text><text x="9.018" y="8.183" class="o">a</text><text x="11.022" y="8.183" class="o">framework:</text><text x="22.044" y="8.183" class="l">›</text><text x="24.048" y="8.183" class="l">-</text><text x="26.052" y="8.183" class="l">Use</text><text x="30.06" y="8.183" class="l">arrow-keys.</text><text x="42.084" y="8.183" class="l">Return</text><text x="49.098" y="8.183" class="l">to</text><text x="52.104" y="8.183" class="l">submit.</text><text y="10.354" class="g">❯</text><text x="4.008" y="10.354" style="white-space:pre" fill="#66c2cd" text-decoration="underline">midway-vue3-ssr</text><text x="4.008" y="12.525" class="m">midway-react-ssr</text><text x="4.008" y="14.696" class="m">midway-vue-ssr</text><text x="4.008" y="16.867" class="m">nestjs-vue3-ssr</text><text x="4.008" y="19.038" class="m">nestjs-react-ssr</text><text x="4.008" y="21.209" class="m">nestjs-vue-ssr</text></svg><svg x="2074"><use xlink:href="#a"/><use xlink:href="#1" y="2.171"/><use xlink:href="#5" y="4.342"/></svg><svg x="2196"><use xlink:href="#a"/><use xlink:href="#b" x="-.004" y="8.659"/><use xlink:href="#1" y="2.171"/><use xlink:href="#5" y="4.342"/><use xlink:href="#6" y="6.513"/></svg><svg x="2318"><use xlink:href="#a"/><use xlink:href="#b" x="-.004" y="10.83"/><use xlink:href="#1" y="2.171"/><use xlink:href="#5" y="4.342"/><use xlink:href="#6" y="6.513"/><use xlink:href="#7" y="8.684"/></svg><svg x="2440"><use xlink:href="#a"/><use xlink:href="#b" x="-.004" y="13.001"/><use xlink:href="#1" y="2.171"/><use xlink:href="#5" y="4.342"/><use xlink:href="#6" y="6.513"/><use xlink:href="#7" y="8.684"/><use xlink:href="#8" y="10.855"/></svg><svg x="2562"><use xlink:href="#a"/><use xlink:href="#b" x="-.004" y="19.514"/><use xlink:href="#1" y="2.171"/><use xlink:href="#5" y="4.342"/><use xlink:href="#6" y="6.513"/><use xlink:href="#7" y="8.684"/><use xlink:href="#8" y="10.855"/><use xlink:href="#9" y="13.026"/><use xlink:href="#10" y="15.197"/><use xlink:href="#11" y="17.368"/></svg><svg x="2684"><use xlink:href="#a"/><use xlink:href="#b" x="-.004" y="21.685"/><use xlink:href="#1" y="2.171"/><use xlink:href="#5" y="4.342"/><use xlink:href="#6" y="6.513"/><use xlink:href="#7" y="8.684"/><use xlink:href="#8" y="10.855"/><use xlink:href="#9" y="13.026"/><use xlink:href="#10" y="15.197"/><use xlink:href="#11" y="17.368"/></svg><svg x="2806"><use xlink:href="#a"/><use xlink:href="#b" x="-.004" y="21.685"/><use xlink:href="#1" y="2.171"/><use xlink:href="#5" y="4.342"/><use xlink:href="#6" y="6.513"/><use xlink:href="#7" y="8.684"/><use xlink:href="#8" y="10.855"/><use xlink:href="#9" y="13.026"/><use xlink:href="#10" y="15.197"/><use xlink:href="#11" y="17.368"/></svg><svg x="2928"><use xlink:href="#a"/><use xlink:href="#b" x="-.004" y="21.685"/><use xlink:href="#1" y="2.171"/><use xlink:href="#5" y="4.342"/><use xlink:href="#6" y="6.513"/><use xlink:href="#7" y="8.684"/><use xlink:href="#8" y="10.855"/><use xlink:href="#9" y="13.026"/><use xlink:href="#10" y="15.197"/><use xlink:href="#11" y="17.368"/></svg><svg x="3050"><use xlink:href="#a"/><use xlink:href="#b" x="1.996" y="26.027"/><use xlink:href="#1" y="2.171"/><use xlink:href="#5" y="4.342"/><use xlink:href="#6" y="6.513"/><use xlink:href="#7" y="8.684"/><use xlink:href="#8" y="10.855"/><use xlink:href="#9" y="13.026"/><use xlink:href="#10" y="15.197"/><use xlink:href="#11" y="17.368"/><use xlink:href="#12" y="23.881"/><use xlink:href="#2" y="26.052"/></svg><svg x="3172"><use xlink:href="#a"/><use xlink:href="#b" x="1.996" y="26.027"/><use xlink:href="#1" y="2.171"/><use xlink:href="#5" y="4.342"/><use xlink:href="#6" y="6.513"/><use xlink:href="#7" y="8.684"/><use xlink:href="#8" y="10.855"/><use xlink:href="#9" y="13.026"/><use xlink:href="#10" y="15.197"/><use xlink:href="#11" y="17.368"/><use xlink:href="#12" y="23.881"/><use xlink:href="#2" y="26.052"/></svg><svg x="3294"><use xlink:href="#a"/><use xlink:href="#b" x="1.996" y="26.027"/><use xlink:href="#1" y="2.171"/><use xlink:href="#5" y="4.342"/><use xlink:href="#6" y="6.513"/><use xlink:href="#7" y="8.684"/><use xlink:href="#8" y="10.855"/><use xlink:href="#9" y="13.026"/><use xlink:href="#10" y="15.197"/><use xlink:href="#11" y="17.368"/><use xlink:href="#12" y="23.881"/><use xlink:href="#2" y="26.052"/></svg><svg x="3416"><use xlink:href="#a"/><use xlink:href="#b" x="-.004" y="28.198"/><use xlink:href="#1" y="2.171"/><use xlink:href="#5" y="4.342"/><use xlink:href="#6" y="6.513"/><use xlink:href="#7" y="8.684"/><use xlink:href="#8" y="10.855"/><use xlink:href="#9" y="13.026"/><use xlink:href="#10" y="15.197"/><use xlink:href="#11" y="17.368"/><use xlink:href="#12" y="23.881"/><use xlink:href="#2" y="26.052"/></svg></svg></g></g></svg></svg>